<svg width="107px" height="107px" viewBox="0 0 107 107" xmlns="http://www.w3.org/2000/svg"><path d="M60.129 2.952l2.69 12.303c3.442.948 6.69 2.248 9.725 3.96l.647.374 9.682-6.889 10.98 9.955-6.858 10.709a39.449 39.449 0 014.01 9.438l.19.705 11.726 2.021.728 14.784-12.395 2.686c-.93 3.349-2.209 6.528-3.9 9.5l-.37.635 6.862 9.75-9.946 10.97-10.708-6.858a39.449 39.449 0 01-9.439 4.01l-.705.19-2.02 11.726-14.783.728-2.687-12.373a43.206 43.206 0 01-9.23-3.74l-.667-.374-9.809 6.908-10.972-9.948 6.805-10.615c-1.73-3.039-3.097-6.186-4.014-9.456l-.19-.703L3.679 61.27l-.727-14.776 12.303-2.69c.927-3.357 2.186-6.56 3.858-9.537l.364-.635-6.925-9.779L22.5 12.88l10.615 6.805c3.04-1.73 6.186-3.097 9.456-4.014l.703-.19 2.079-11.802 14.776-.727zM53.3 35.536a17.708 17.708 0 00-12.56 5.203A17.708 17.708 0 0035.535 53.3c0 4.905 1.989 9.346 5.203 12.56A17.708 17.708 0 0053.3 71.065c4.905 0 9.346-1.989 12.56-5.203A17.708 17.708 0 0071.065 53.3c0-4.905-1.989-9.346-5.203-12.56A17.708 17.708 0 0053.3 35.535z" fill-rule="nonzero" stroke="#1D83EA" stroke-width="5.86" fill="none"></path></svg>