<svg width="30px" height="30px" viewBox="0 0 30 30" xmlns="http://www.w3.org/2000/svg" tint="#FFFFFF" type="export" style="margin-right: 8px;"><g fill="#FFFFFF" fill-rule="nonzero" stroke="#FFFFFF" stroke-width="0.65"><path d="M24.524 6h-4.743a.474.474 0 00-.475.472c0 .26.213.471.475.471h3.602l-9.253 9.261a.469.469 0 00.01.66c.184.18.48.182.665.004l9.244-9.25v3.555c0 .261.213.472.475.472a.474.474 0 00.476-.472V6.472A.474.474 0 0024.524 6z"></path><path d="M21.521 16.883a.479.479 0 00-.479.479v5.244c0 .793-.643 1.435-1.436 1.436H8.394a1.438 1.438 0 01-1.436-1.436V11.394c0-.793.643-1.435 1.436-1.436h5.244a.479.479 0 100-.958H8.394A2.397 2.397 0 006 11.394v11.212A2.397 2.397 0 008.394 25h11.212A2.397 2.397 0 0022 22.606v-5.244a.479.479 0 00-.479-.479z"></path></g></svg>