<svg width="30px" height="30px" viewBox="0 0 30 30" xmlns="http://www.w3.org/2000/svg" tint="#FFFFFF" type="moon" style="margin-right: 8px;"><path d="M15.55 4.001c.418-.019.709.167.87.557.172.39.1.733-.214 1.028a7.594 7.594 0 00-1.877 2.59 7.669 7.669 0 00-.65 3.12c0 1.409.348 2.708 1.042 3.897a7.74 7.74 0 002.827 2.827 7.589 7.589 0 003.897 1.042 7.655 7.655 0 003.255-.728c.39-.172.732-.11 1.027.186a.886.886 0 01.25.485c.034.19.012.37-.064.542a10.78 10.78 0 01-4.047 4.632 10.721 10.721 0 01-5.903 1.735c-1.484 0-2.902-.29-4.253-.87-1.352-.582-2.518-1.362-3.498-2.342-.98-.98-1.76-2.146-2.341-3.497C5.29 17.853 5 16.435 5 14.95c0-1.456.274-2.847.82-4.175.548-1.328 1.29-2.477 2.228-3.448.937-.97 2.058-1.753 3.362-2.348a10.91 10.91 0 014.14-.978zm-.054.77c-.46-.342-1.517.138-2.442.414-2.121.634-3.86 1.898-5.205 3.681-1.347 1.786-2.022 3.813-2.022 6.085 0 1.375.27 2.689.81 3.942a10.221 10.221 0 002.16 3.224 10.214 10.214 0 003.224 2.16c1.253.54 2.567.81 3.942.81a9.974 9.974 0 004.334-.975c1.366-.649 2.56-1.514 3.52-2.675.96-1.16 1.672-1.632 1.324-2.164-.349-.533-1.792.298-2.267.43a5.3 5.3 0 01-1.43.186 8.43 8.43 0 01-4.308-1.15 8.504 8.504 0 01-3.134-3.134 8.432 8.432 0 01-1.15-4.309c0-1.636.444-3.157 1.33-4.563.466-.738 1.775-1.622 1.314-1.963z" stroke="#FFFFFF" stroke-width="0.6" fill="#FFFFFF" fill-rule="nonzero"></path></svg>