<svg width="25px" height="24px" viewBox="0 0 25 24" fill="none" xmlns="http://www.w3.org/2000/svg" tint="#1780EA" type="new-folder" dark="#1780EA" light="#1780EA" style="margin-left: 0px; margin-right: 8px;"><path d="M13.5 7l-1.116-2.231c-.32-.642-.481-.963-.72-1.198a2 2 0 00-.748-.462C10.6 3 10.24 3 9.522 3H5.7c-1.12 0-1.68 0-2.108.218a2 2 0 00-.874.874C2.5 4.52 2.5 5.08 2.5 6.2V7m0 0h15.2c1.68 0 2.52 0 3.162.327a3 3 0 011.311 1.311c.327.642.327 1.482.327 3.162v4.4c0 1.68 0 2.52-.327 3.162a3 3 0 01-1.311 1.311C20.22 21 19.38 21 17.7 21H7.3c-1.68 0-2.52 0-3.162-.327a3 3 0 01-1.311-1.311C2.5 18.72 2.5 17.88 2.5 16.2V7zm10 10v-6m-3 3h6" stroke="#1780EA" stroke-width="1.5" stroke-linecap="round" stroke-linejoin="round"></path></svg>