<svg width="30px" height="30px" viewBox="0 0 30 30" xmlns="http://www.w3.org/2000/svg" tint="#111927" type="lock" style="margin-right: 8px;"><path d="M21.101 13.198h-1.444v-3.82A4.386 4.386 0 0015.273 5a4.386 4.386 0 00-4.385 4.378v3.82H9.444c-.796 0-1.444.647-1.444 1.442v8.918C8 24.353 8.648 25 9.444 25h11.657c.797 0 1.444-.647 1.444-1.442V14.64c0-.795-.647-1.442-1.444-1.442zm-9.25-3.82a3.423 3.423 0 016.844 0v3.82H11.85v-3.82zm9.732 14.18h0c0 .265-.216.48-.482.48H9.444a.482.482 0 01-.481-.48V14.64c0-.265.216-.48.481-.48h11.657c.266 0 .482.215.482.48v8.918z" fill="#111927" fill-rule="nonzero" stroke="#111927" stroke-width="0.5"></path></svg>